<mxfile host="www.draw.io" modified="2020-01-22T11:41:36.166Z" agent="Mozilla/5.0 (Windows NT 10.0; Win64; x64; rv:72.0) Gecko/20100101 Firefox/72.0" etag="8UEHMAjwrS3j33IwCyCE" version="12.5.5" type="github">
  <diagram id="NaSeBLqlL3eGMU2n7enw" name="Page-1">
    <mxGraphModel dx="953" dy="1168" grid="1" gridSize="10" guides="1" tooltips="1" connect="1" arrows="1" fold="1" page="1" pageScale="1" pageWidth="1169" pageHeight="827" math="0" shadow="0">
      <root>
        <mxCell id="0"/>
        <mxCell id="1" parent="0"/>
        <mxCell id="cjIhGPLlgZLgHjBtwxUs-1" value="" style="triangle;whiteSpace=wrap;html=1;" vertex="1" parent="1">
          <mxGeometry x="260" y="230" width="60" height="80" as="geometry"/>
        </mxCell>
        <mxCell id="cjIhGPLlgZLgHjBtwxUs-2" value="" style="rounded=1;whiteSpace=wrap;html=1;" vertex="1" parent="1">
          <mxGeometry x="580" y="140" width="120" height="60" as="geometry"/>
        </mxCell>
      </root>
    </mxGraphModel>
  </diagram>
</mxfile>
